<svg preserveAspectRatio="none" overflow="visible" style="display: block;" width="24" height="24" viewBox="0 0 24 24" fill="none" xmlns="http://www.w3.org/2000/svg">
<g id="icon/notifiction">
<g id="bounding-box">
</g>
<mask id="mask0_0_204" style="mask-type:luminance" maskUnits="userSpaceOnUse" x="3" y="1" width="18" height="22">
<path id="Shape" fill-rule="evenodd" clip-rule="evenodd" d="M19 11V17L20.29 18.29C20.92 18.92 20.47 20 19.58 20H4.41C3.52 20 3.08 18.92 3.71 18.29L5 17V11C5 7.65 7.36 4.85 10.5 4.17V3C10.5 2.17 11.17 1.5 12 1.5C12.83 1.5 13.5 2.17 13.5 3V4.17C16.64 4.85 19 7.65 19 11ZM13.99 21.01C13.99 22.11 13.1 23 12 23C10.9 23 10.01 22.11 10.01 21.01H13.99Z" fill="white"/>
</mask>
<g mask="url(#mask0_0_204)">
<path id="colour" fill-rule="evenodd" clip-rule="evenodd" d="M0 0H24V24H0V0Z" fill="white"/>
</g>
</g>
</svg>
